<svg width="75" height="55" viewBox="0 0 75 55" fill="none" xmlns="http://www.w3.org/2000/svg">
<path d="M11.67 50.11L11.1432 50.96L11.1502 50.9643L11.1573 50.9685L11.67 50.11ZM3.83 41.29L2.92916 41.7241L2.93232 41.7307L2.93557 41.7372L3.83 41.29ZM3.83 13.78L2.93341 13.3371L2.93123 13.3416L3.83 13.78ZM11.67 4.96L12.188 5.81536L12.1915 5.81328L11.67 4.96ZM34.7 4.96L34.1732 5.81001L34.1802 5.81433L34.1873 5.81854L34.7 4.96ZM42.54 13.78L41.6392 14.2141L41.6423 14.2207L41.6456 14.2272L42.54 13.78ZM42.54 41.29L41.6434 40.8471L41.6412 40.8516L42.54 41.29ZM34.7 50.11L35.218 50.9654L35.2215 50.9633L34.7 50.11ZM23.22 52.12C19.0403 52.12 15.3712 51.1557 12.1827 49.2515L11.1573 50.9685C14.6888 53.0776 18.7197 54.12 23.22 54.12V52.12ZM12.1968 49.26C9.05611 47.3137 6.56325 44.5204 4.72443 40.8428L2.93557 41.7372C4.92341 45.7129 7.65723 48.7997 11.1432 50.96L12.1968 49.26ZM4.73084 40.8559C2.94306 37.1462 2.03 32.7046 2.03 27.5H0.0300001C0.0300001 32.9354 0.983608 37.6871 2.92916 41.7241L4.73084 40.8559ZM2.03 27.5C2.03 22.295 2.94322 17.8788 4.72877 14.2184L2.93123 13.3416C0.983446 17.3345 0.0300001 22.065 0.0300001 27.5H2.03ZM4.72658 14.2229C6.56561 10.5 9.05594 7.71226 12.188 5.81536L11.152 4.10464C7.65739 6.22107 4.92105 9.31337 2.93342 13.3371L4.72658 14.2229ZM12.1915 5.81328C15.3787 3.86553 19.0446 2.88 23.22 2.88V0.879999C18.7154 0.879999 14.6813 1.9478 11.1486 4.10671L12.1915 5.81328ZM23.22 2.88C27.3956 2.88 31.0356 3.86558 34.1732 5.81001L35.2268 4.10999C31.7377 1.94775 27.7244 0.879999 23.22 0.879999V2.88ZM34.1873 5.81854C37.3627 7.71496 39.8488 10.4991 41.6392 14.2141L43.4408 13.3459C41.4979 9.31422 38.7573 6.21837 35.2127 4.10145L34.1873 5.81854ZM41.6456 14.2272C43.4746 17.8853 44.41 22.2983 44.41 27.5H46.41C46.41 22.0617 45.432 17.328 43.4344 13.3328L41.6456 14.2272ZM44.41 27.5C44.41 32.7013 43.4748 37.1397 41.6434 40.8471L43.4366 41.7329C45.4319 37.6936 46.41 32.9387 46.41 27.5H44.41ZM41.6412 40.8516C39.8511 44.5213 37.3625 47.311 34.1786 49.2567L35.2215 50.9633C38.7575 48.8024 41.4956 45.712 43.4388 41.7284L41.6412 40.8516ZM34.182 49.2546C31.0431 51.1556 27.3999 52.12 23.22 52.12V54.12C27.7201 54.12 31.7302 53.0777 35.218 50.9654L34.182 49.2546ZM23.22 40.89C24.3504 40.89 25.3788 40.573 26.2635 39.9204C27.1369 39.2763 27.8148 38.347 28.3312 37.2044C29.3532 34.9434 29.82 31.6741 29.82 27.5H27.82C27.82 31.5859 27.3535 34.5116 26.5088 36.3806C26.0919 37.303 25.6031 37.9224 25.0765 38.3108C24.5612 38.6908 23.9563 38.89 23.22 38.89V40.89ZM29.82 27.5C29.82 23.3259 29.3532 20.0566 28.3312 17.7956C27.8148 16.653 27.1369 15.7237 26.2635 15.0796C25.3788 14.427 24.3504 14.11 23.22 14.11V16.11C23.9563 16.11 24.5612 16.3092 25.0765 16.6892C25.6031 17.0776 26.0919 17.697 26.5088 18.6194C27.3535 20.4884 27.82 23.4141 27.82 27.5H29.82ZM23.22 14.11C22.0896 14.11 21.0612 14.427 20.1765 15.0796C19.3031 15.7237 18.6252 16.653 18.1088 17.7956C17.0868 20.0566 16.62 23.3259 16.62 27.5H18.62C18.62 23.4141 19.0865 20.4884 19.9312 18.6194C20.3481 17.697 20.8369 17.0776 21.3635 16.6892C21.8788 16.3092 22.4837 16.11 23.22 16.11V14.11ZM16.62 27.5C16.62 31.6741 17.0868 34.9434 18.1088 37.2044C18.6252 38.347 19.3031 39.2763 20.1765 39.9204C21.0612 40.573 22.0896 40.89 23.22 40.89V38.89C22.4837 38.89 21.8788 38.6908 21.3635 38.3108C20.8369 37.9224 20.3481 37.303 19.9312 36.3806C19.0865 34.5116 18.62 31.5859 18.62 27.5H16.62ZM73.4532 3H74.4532V2H73.4532V3ZM73.4532 52V53H74.4532V52H73.4532ZM56.9332 52H55.9332V53H56.9332V52ZM56.9332 15.46H57.9332V14.46H56.9332V15.46ZM48.5332 15.46H47.5332V16.46H48.5332V15.46ZM48.5332 3V2H47.5332V3H48.5332ZM72.4532 3V52H74.4532V3H72.4532ZM73.4532 51H56.9332V53H73.4532V51ZM57.9332 52V15.46H55.9332V52H57.9332ZM56.9332 14.46H48.5332V16.46H56.9332V14.46ZM49.5332 15.46V3H47.5332V15.46H49.5332ZM48.5332 4H73.4532V2H48.5332V4Z" fill="#5551F7"/>
</svg>
