<svg width="47" height="31" viewBox="0 0 47 31" fill="none" xmlns="http://www.w3.org/2000/svg">
<path d="M6.48146 2.21905C6.35847 2.57332 6.35259 2.94229 6.33103 3.29999C6.24038 4.80576 6.38787 6.28066 6.94941 7.69872C7.59327 9.32405 8.65608 10.6123 10.0614 11.6329C11.4996 12.6776 13.1249 13.3028 14.8105 13.8169C16.477 14.325 18.0087 15.0928 19.2714 16.332C20.5361 17.5732 21.2437 19.0922 21.5343 20.8214C21.6489 21.504 21.695 22.1929 21.6964 22.8853C21.6964 22.9681 21.6979 23.0524 21.6847 23.1332C21.6401 23.4047 21.4338 23.5781 21.1913 23.5566C20.9556 23.5355 20.7939 23.3552 20.7929 23.0759C20.7914 22.4948 20.7576 21.9166 20.6915 21.3393C20.3906 18.7164 19.0348 16.8206 16.7283 15.5779C15.7978 15.0766 14.8012 14.7508 13.7972 14.4347C11.6593 13.7625 9.70174 12.7692 8.12296 11.1317C6.68824 9.64304 5.8376 7.86385 5.53429 5.82741C5.27802 4.10947 5.39513 2.40917 5.87288 0.736308C5.88317 0.701028 5.89591 0.666238 5.90522 0.630468C5.96598 0.388898 6.11396 0.230628 6.36631 0.228178C6.59857 0.225728 6.7294 0.386939 6.80143 0.592738C7.00086 1.15967 7.26399 1.69769 7.54182 2.22885C7.66579 2.46552 7.79809 2.69778 7.92794 2.93151C8.22537 3.46855 8.74869 3.68219 9.28916 3.85369C10.2795 4.16778 11.3065 4.27509 12.3365 4.35545C13.9089 4.47893 15.4852 4.45345 17.0606 4.47795C18.2816 4.49657 19.3787 4.96305 20.42 5.56232C21.3583 6.10279 22.2139 6.75694 22.9979 7.50468C23.0846 7.58749 23.1856 7.6556 23.2654 7.7438C23.3894 7.881 23.4815 7.85356 23.6065 7.734C24.4076 6.96764 25.2632 6.27037 26.2128 5.69217C27.5059 4.90474 28.8769 4.41474 30.4214 4.46472C31.8306 4.51029 33.2413 4.46129 34.6471 4.34908C35.6943 4.26529 36.737 4.14083 37.741 3.79783C38.3447 3.59203 38.797 3.24413 39.0919 2.65711C39.4398 1.96523 39.8108 1.2856 40.0626 0.550598C40.1337 0.343328 40.2792 0.224748 40.4948 0.226708C40.728 0.228668 40.8608 0.382529 40.9314 0.589799C41.1607 1.26502 41.2881 1.96425 41.3685 2.66936C41.5493 4.25255 41.4537 5.81663 40.974 7.34494C40.19 9.84247 38.5848 11.6721 36.3592 12.9907C35.146 13.7095 33.8411 14.2093 32.4941 14.6141C31.079 15.0394 29.7506 15.6401 28.6099 16.6064C27.1972 17.803 26.4406 19.348 26.1844 21.159C26.1006 21.7524 26.0584 22.3497 26.0721 22.95C26.0736 23.0142 26.0746 23.0798 26.0668 23.1435C26.0369 23.3885 25.858 23.5571 25.6287 23.5605C25.3847 23.5644 25.1823 23.3949 25.1759 23.1327C25.1186 20.7371 25.6062 18.515 27.2604 16.6706C28.3658 15.4378 29.7599 14.6523 31.2877 14.0756C32.3221 13.685 33.403 13.4312 34.4168 12.978C36.3666 12.1063 38.0595 10.9214 39.212 9.0766C39.9681 7.86679 40.3748 6.53987 40.5046 5.11936C40.585 4.24177 40.5497 3.37153 40.4404 2.50129C40.4291 2.41113 40.438 2.31558 40.3468 2.21121C40.2091 2.45817 40.0582 2.68504 39.9504 2.93102C39.5246 3.90416 38.7484 4.43728 37.7635 4.72883C36.7233 5.03704 35.6541 5.16444 34.5781 5.24823C33.0056 5.37073 31.4293 5.3477 29.854 5.36926C28.7265 5.38494 27.7205 5.82888 26.7684 6.39973C25.6944 7.04359 24.7403 7.83739 23.8711 8.73605C23.529 9.08934 23.3375 9.09081 22.9945 8.74046C21.9561 7.68059 20.8159 6.75351 19.4905 6.07094C18.6442 5.63533 17.7554 5.35407 16.7906 5.36044C15.5185 5.36926 14.2465 5.37563 12.9764 5.29723C11.6887 5.21736 10.4034 5.11103 9.15539 4.745C8.19793 4.46423 7.39482 3.99579 6.96656 3.03686C6.87297 2.82714 6.75194 2.62918 6.63973 2.42828C6.60151 2.35821 6.59024 2.26707 6.48146 2.21905Z" fill="#1C1D28"/>
<path d="M30.2493 24.2401C30.2498 22.8941 30.2488 21.5485 30.2503 20.2025C30.2508 19.7463 30.3885 19.6126 30.8476 19.614C33.4088 19.6219 35.7495 21.6559 36.1391 24.2132C36.607 27.2845 34.6612 30.0123 31.6007 30.5753C28.5652 31.1334 25.5198 28.8496 25.2141 25.7846C25.1969 25.6106 25.1724 25.4367 25.1709 25.2623C25.168 24.9046 25.3454 24.6792 25.6168 24.6757C25.8986 24.6718 26.0637 24.8781 26.0735 25.2461C26.1284 27.284 27.5548 29.0799 29.5221 29.587C32.2255 30.2843 34.9107 28.4747 35.2777 25.7072C35.5986 23.2866 33.8503 20.9356 31.4748 20.569C31.1832 20.524 31.1533 20.6229 31.1538 20.8625C31.1597 23.2778 31.1578 25.693 31.1582 28.1077C31.1582 28.2091 31.1627 28.311 31.1543 28.412C31.1288 28.7153 30.9529 28.8883 30.6829 28.8819C30.4051 28.8755 30.2517 28.7099 30.2508 28.3875C30.2473 27.0057 30.2488 25.6229 30.2493 24.2401Z" fill="#1C1D28"/>
<path d="M11.0829 27.3849C10.8982 27.6971 10.7419 28.018 10.5331 28.3091C9.18072 30.1975 6.864 31.0501 4.63058 30.4749C2.42607 29.907 0.796817 28.02 0.537607 25.7327C0.517027 25.5499 0.495467 25.3656 0.498897 25.1824C0.504777 24.8879 0.695877 24.6801 0.940877 24.6752C1.20842 24.6699 1.38237 24.8659 1.39952 25.1863C1.49262 26.963 2.29377 28.311 3.84854 29.1911C6.50287 30.6929 10.0539 28.9916 10.5586 25.983C10.5998 25.7366 10.6164 25.4896 10.6287 25.2412C10.6463 24.884 10.8056 24.6904 11.076 24.6797C11.3485 24.6689 11.5273 24.8379 11.5464 25.2108C11.5817 25.8919 11.715 26.5431 12.0193 27.1561C12.9562 29.0441 14.8995 29.8967 16.6282 29.7178C18.6897 29.5047 20.3767 27.9406 20.7222 25.8503C20.7579 25.6327 20.7741 25.4112 20.7878 25.1907C20.8079 24.8673 20.9735 24.6733 21.2421 24.6748C21.4964 24.6762 21.7007 24.8972 21.6919 25.204C21.6747 25.7959 21.5797 26.3765 21.3817 26.9376C20.5468 29.3008 18.2771 30.8306 15.78 30.6336C13.7588 30.4739 12.2496 29.4596 11.2666 27.6775C11.2142 27.5834 11.1907 27.4702 11.0829 27.3849Z" fill="#1C1D28"/>
<path d="M40.704 30.6523C39.1747 30.5979 37.6709 29.8761 36.5508 28.3934C36.4479 28.2572 36.3685 28.1155 36.3954 27.9367C36.4229 27.7564 36.5209 27.6349 36.6968 27.578C36.9119 27.5084 37.0809 27.5873 37.2064 27.7554C37.4715 28.1116 37.7572 28.4473 38.1124 28.7178C39.5133 29.7845 41.0573 30.0613 42.6929 29.4062C44.3888 28.7271 45.3502 27.4286 45.5868 25.6082C45.6069 25.4534 45.6187 25.2971 45.6304 25.1412C45.6515 24.861 45.826 24.6772 46.0768 24.6748C46.3125 24.6723 46.5198 24.8688 46.5291 25.1432C46.5409 25.5024 46.4904 25.8601 46.4213 26.2124C45.9156 28.7736 43.6332 30.6474 40.704 30.6523Z" fill="#1C1D28"/>
</svg>
